HIERARCHY
ROOT Hips
{
	OFFSET 0.000000 0.000000 0.000000 
	CHANNELS 6 Xposition Yposition Zposition Zrotation Xrotation Yrotation
	JOINT Spine
	{
		OFFSET -0.000000 8.280624 0.000000 
		CHANNELS 3 Zrotation Xrotation Yrotation
		JOINT Spine1
		{
			OFFSET -0.000000 24.860672 0.000000 
			CHANNELS 3 Zrotation Xrotation Yrotation
			JOINT Neck
			{
				OFFSET -0.000000 24.758574 2.250779 
				CHANNELS 3 Zrotation Xrotation Yrotation
				JOINT Head
				{
					OFFSET -0.000000 14.137651 -2.019665 
					CHANNELS 3 Zrotation Xrotation Yrotation
					End Site
					{
						OFFSET -0.000000 25.245806 0.000000 
					}
				}
			}
			JOINT LeftShoulder
			{
				OFFSET 4.021533 22.370487 -0.301823 
				CHANNELS 3 Zrotation Xrotation Yrotation
				JOINT LeftArm
				{
					OFFSET 12.928750 0.000000 0.000000 
					CHANNELS 3 Zrotation Xrotation Yrotation
					JOINT LeftForeArm
					{
						OFFSET 29.110218 0.000000 0.000000 
						CHANNELS 3 Zrotation Xrotation Yrotation
						JOINT LeftHand
						{
							OFFSET 26.112843 0.000000 0.000000 
							CHANNELS 3 Zrotation Xrotation Yrotation
							End Site
							{
								OFFSET 15.147485 0.000000 0.000000 
							}
						}
					}
				}
			}
			JOINT RightShoulder
			{
				OFFSET -4.040554 22.370487 -0.301823 
				CHANNELS 3 Zrotation Xrotation Yrotation
				JOINT RightArm
				{
					OFFSET -12.928750 0.000000 0.000000 
					CHANNELS 3 Zrotation Xrotation Yrotation
					JOINT RightForeArm
					{
						OFFSET -29.110218 0.000000 0.000000 
						CHANNELS 3 Zrotation Xrotation Yrotation
						JOINT RightHand
						{
							OFFSET -26.112843 0.000000 0.000000 
							CHANNELS 3 Zrotation Xrotation Yrotation
							End Site
							{
								OFFSET -15.147485 0.000000 0.000000 
							}
						}
					}
				}
			}
		}
	}
	JOINT LeftUpLeg
	{
		OFFSET 10.098323 0.000000 0.000000 
		CHANNELS 3 Zrotation Xrotation Yrotation
		JOINT LeftLeg
		{
			OFFSET -0.000000 -44.180832 0.000000 
			CHANNELS 3 Zrotation Xrotation Yrotation
			JOINT LeftFoot
			{
				OFFSET -0.000000 -40.401024 0.000000 
				CHANNELS 3 Zrotation Xrotation Yrotation
				JOINT LeftToeBase
				{
					OFFSET -0.000000 -6.563910 15.147485 
					CHANNELS 3 Zrotation Xrotation Yrotation
					End Site
					{
						OFFSET -0.000000 0.000000 4.039329 
					}
				}
			}
		}
	}
	JOINT RightUpLeg
	{
		OFFSET -10.098323 0.000000 0.000000 
		CHANNELS 3 Zrotation Xrotation Yrotation
		JOINT RightLeg
		{
			OFFSET -0.000000 -44.180832 0.000000 
			CHANNELS 3 Zrotation Xrotation Yrotation
			JOINT RightFoot
			{
				OFFSET -0.000000 -40.401024 0.000000 
				CHANNELS 3 Zrotation Xrotation Yrotation
				JOINT RightToeBase
				{
					OFFSET -0.000000 -6.563910 15.147485 
					CHANNELS 3 Zrotation Xrotation Yrotation
					End Site
					{
						OFFSET -0.000000 0.000000 4.039329 
					}
				}
			}
		}
	}
}
MOTION
Frames: 11
Frame Time: 0.008333
-26.192474 84.877289 -29.735897 1.835366 4.778069 89.443344 1.614830 20.033150 -11.674390 -8.725552 2.037866 -11.233643 -4.418816 20.628223 35.873104 -20.530914 -8.706354 33.142574 -1.269780 -9.055326 -35.995075 -15.001471 15.181637 -90.165039 2.779839 -11.749475 -40.447933 37.729416 -21.091946 -30.690464 -15.236581 -5.548092 8.007563 -129.068405 23.713205 -172.191498 80.479759 -38.685635 -86.150169 1.944401 63.023109 36.472679 29.219913 -13.612154 25.141378 -10.781060 36.372494 18.429876 -7.683495 3.997544 7.954588 0.000000 0.000000 0.000000 -12.839495 -25.483984 6.935883 -4.511873 51.590660 17.776094 -0.393797 -22.250481 -24.380365 0.000000 0.000000 0.000000 
-26.076237 84.866142 -30.395840 1.657942 4.783181 89.728508 1.699365 19.813835 -11.716140 -8.233698 1.996915 -11.275554 -4.438318 21.032990 35.679802 -21.043697 -8.839610 32.792702 -1.308343 -9.205223 -35.879063 -15.161665 14.783527 -90.608047 3.022953 -11.235183 -40.097565 37.406826 -20.613358 -31.211088 -15.045017 -5.767388 7.954556 -128.335159 24.665007 -172.563980 80.911934 -38.946655 -86.002663 1.710419 63.399754 36.808491 29.089273 -13.629953 25.909967 -11.251027 36.566795 18.636122 -9.164533 3.086758 8.232989 0.000000 0.000000 0.000000 -13.154338 -25.320240 7.090252 -4.707834 51.341476 17.600975 -0.025492 -22.222668 -24.561356 0.000000 0.000000 0.000000 
-25.962044 84.875191 -31.087976 1.528738 4.889779 90.086670 1.708687 19.648382 -11.759542 -7.697162 1.981884 -11.330268 -4.473300 21.597204 35.699944 -21.736805 -9.224977 32.577847 -1.277884 -9.783786 -35.691204 -14.845622 14.758706 -91.102539 3.575293 -11.177424 -39.848671 36.958958 -20.220724 -31.137888 -14.932605 -6.151376 7.930162 -127.591225 25.582165 -172.716537 80.888985 -39.215904 -86.133286 1.965810 63.493095 36.926102 28.762833 -13.668134 26.636869 -11.666986 36.790085 18.817900 -9.996352 2.100478 8.418260 0.000000 0.000000 0.000000 -13.646029 -25.011684 7.253337 -4.660120 50.964481 16.991451 0.185874 -22.187660 -24.673767 0.000000 0.000000 0.000000 
-25.828533 84.893951 -31.817659 1.419372 5.032378 90.460258 1.713010 19.532059 -11.751184 -7.186222 1.772045 -11.345011 -4.258790 21.202261 35.381008 -21.393877 -7.896531 32.580349 -1.318251 -9.794921 -35.608646 -14.448917 14.419931 -91.580421 4.035631 -10.948463 -39.537495 36.794025 -19.881289 -31.353886 -14.928128 -6.906834 7.968471 -126.734825 26.228804 -172.395645 80.643944 -39.400169 -86.441719 2.549201 63.593185 36.961952 28.379238 -13.717468 27.687231 -11.889474 37.118980 18.608093 -10.024529 1.044338 8.349390 0.000000 0.000000 0.000000 -14.178450 -24.645741 7.340019 -4.810948 50.614670 16.947701 0.369819 -22.174686 -25.134106 0.000000 0.000000 0.000000 
-25.700321 84.915520 -32.543964 1.329261 5.220541 90.859428 1.593988 19.410368 -11.671312 -6.569410 1.661872 -11.303277 -4.104633 21.204370 35.167286 -21.531544 -7.260738 32.451996 -1.207193 -10.144217 -35.433117 -14.368458 14.397055 -92.093521 4.647588 -10.581156 -39.158882 36.559734 -19.281506 -31.392469 -14.575358 -6.949422 7.963255 -126.249176 27.259089 -172.628799 80.349098 -39.658886 -86.797684 2.683149 63.579441 37.219639 27.931993 -13.735373 28.575142 -12.204359 37.312790 18.508678 -9.625332 0.061337 8.138394 0.000000 0.000000 0.000000 -14.764528 -24.169220 7.786748 -4.577066 50.317459 16.212006 0.539793 -22.348146 -25.386169 0.000000 0.000000 0.000000 
-25.565769 84.949203 -33.290607 1.262607 5.450680 91.296143 1.355245 19.317165 -11.517898 -5.780827 1.537129 -11.209600 -3.947002 21.295530 34.937351 -21.809361 -6.671413 32.270550 -1.185869 -10.622307 -35.308582 -14.278826 14.575816 -92.547638 5.305672 -10.231436 -38.786430 36.497154 -18.729752 -31.411516 -14.338612 -7.023007 7.928278 -125.729729 28.118048 -172.767258 80.174156 -39.915970 -87.038399 2.426038 63.523464 37.812454 27.382278 -13.757118 29.522900 -12.159694 37.515625 17.208546 -9.177823 -0.910775 8.481589 0.000000 0.000000 0.000000 -15.322335 -23.696346 7.876382 -4.868165 49.900455 15.949653 0.778001 -22.265785 -25.656939 0.000000 0.000000 0.000000 
-25.435570 84.983658 -34.049210 1.178180 5.704937 91.852470 1.107839 19.177370 -11.351217 -4.990134 1.410067 -11.102592 -3.760962 21.517365 34.657860 -22.170181 -6.174420 32.003342 -1.125957 -10.750098 -35.214737 -14.042344 14.463441 -92.991997 5.692060 -10.244854 -38.589462 35.627357 -18.491825 -31.792904 -14.038857 -7.121965 7.912148 -125.279846 28.943367 -172.780212 79.555733 -40.097889 -87.546700 3.854722 63.390362 37.182713 26.804890 -13.905107 30.486395 -12.029106 37.816544 16.503359 -8.537726 -1.649640 8.107618 0.000000 0.000000 0.000000 -15.949903 -23.128584 8.132664 -4.833786 49.427292 15.273412 0.910631 -22.216093 -26.019760 0.000000 0.000000 0.000000 
-25.307858 85.031906 -34.825180 1.112399 5.973642 92.465981 0.961719 19.014595 -11.214173 -4.322443 1.303334 -11.003895 -4.034304 21.961487 34.637020 -22.179193 -6.375268 31.908602 -1.044767 -11.115306 -35.071602 -14.098317 14.645254 -93.291908 6.101651 -9.956402 -38.484024 35.171947 -17.952093 -31.811222 -13.728991 -7.201258 7.933067 -124.799042 29.752275 -172.771164 79.221039 -40.258156 -88.030106 3.421588 63.526646 38.027828 26.196594 -14.147916 31.511339 -11.528300 38.314342 15.382345 -8.309435 -2.206293 7.632086 0.000000 0.000000 0.000000 -16.615355 -22.501448 8.457798 -4.694664 48.944351 14.630329 1.062355 -22.121954 -26.529381 0.000000 0.000000 0.000000 
-25.186272 85.082848 -35.596882 1.068262 6.227100 93.168533 0.666393 18.896027 -11.013865 -3.336472 1.187367 -10.868355 -3.820794 21.969337 34.265835 -22.550259 -5.477144 31.633255 -1.039763 -11.302364 -34.906864 -13.285829 14.649260 -93.765930 6.749009 -10.137224 -38.393414 34.692066 -17.694984 -31.571754 -13.552005 -7.272028 7.941116 -124.321762 30.498234 -172.719849 78.787285 -40.317020 -88.593483 2.935944 63.674328 39.237125 25.646749 -14.478274 32.236977 -10.885795 38.942963 13.022495 -8.686198 -2.662021 7.980226 0.000000 0.000000 0.000000 -17.268463 -21.765947 8.834593 -4.434090 48.416718 13.753700 1.167065 -22.020252 -27.052597 0.000000 0.000000 0.000000 
-25.076679 85.138855 -36.368458 1.003296 6.451670 93.951958 0.558818 18.697308 -10.839276 -2.658743 1.125680 -10.721132 -3.375651 21.873850 33.969254 -22.739664 -4.394168 31.526291 -0.776208 -11.328099 -34.477081 -13.022760 14.573426 -94.429871 7.132398 -9.932055 -38.173302 34.108372 -17.238855 -31.664835 -13.107324 -7.314099 7.925759 -123.997742 31.062845 -172.654037 78.241821 -40.314335 -89.088531 2.998567 63.575096 40.076687 25.138226 -14.907058 32.479053 -11.006090 39.471512 14.296170 -8.409447 -2.715528 6.181536 0.000000 0.000000 0.000000 -17.861269 -21.028835 8.895895 -4.613735 47.901119 13.353521 1.424175 -21.832153 -27.550356 0.000000 0.000000 0.000000 
-24.981583 85.203621 -37.179619 0.942490 6.751504 94.793549 0.294003 18.529346 -10.625988 -1.710467 1.024477 -10.562706 -3.494084 22.261030 33.698021 -23.032658 -4.334466 31.180489 -0.714935 -12.053536 -34.516228 -13.496683 15.229143 -94.302231 7.638189 -9.681065 -38.230900 33.360676 -16.603853 -31.678261 -12.888703 -7.358980 7.927525 -123.583199 31.303356 -172.605820 77.979843 -40.373386 -89.268692 2.383508 63.280670 41.445251 24.518265 -15.378129 32.370693 -11.230214 40.034744 14.748187 -8.305976 -2.907784 5.160454 0.000000 0.000000 0.000000 -18.542946 -20.234047 9.063034 -4.655846 47.370712 12.730686 1.687131 -21.593191 -28.106211 0.000000 0.000000 0.000000 
